<?xml version="1.0" encoding="utf-8"?>
<!-- Generator: Adobe Illustrator 23.0.3, SVG Export Plug-In . SVG Version: 6.00 Build 0)  -->
<svg version="1.1" id="Layer_1" xmlns="http://www.w3.org/2000/svg" xmlns:xlink="http://www.w3.org/1999/xlink" x="0px" y="0px"
	 viewBox="0 0 1687.8 742" style="enable-background:new 0 0 1687.8 742;" xml:space="preserve">
<style type="text/css">
	.st0{fill-rule:evenodd;clip-rule:evenodd;fill:url(#SVGID_1_);}
	.st1{fill-rule:evenodd;clip-rule:evenodd;fill:url(#SVGID_2_);}
	.st2{fill:url(#SVGID_3_);}
	.st3{fill-rule:evenodd;clip-rule:evenodd;fill:url(#SVGID_4_);}
	.st4{fill:url(#SVGID_5_);}
	.st5{fill:#F7F7F7;}
</style>
<linearGradient id="SVGID_1_" gradientUnits="userSpaceOnUse" x1="211.7838" y1="492.9507" x2="526.7108" y2="118.2117" gradientTransform="matrix(1 0 0 -1 0 742)">
	<stop  offset="0" style="stop-color:#1596E2"/>
	<stop  offset="1" style="stop-color:#156EE2"/>
</linearGradient>
<path class="st0" d="M305.2,665.3c168.5,0,305.2-136.6,305.2-305.2S473.7,55,305.2,55S0,191.6,0,360.2S136.6,665.3,305.2,665.3z
	 M305.2,611.6c138.9,0,251.5-112.6,251.5-251.5c0-138.9-112.6-251.5-251.5-251.5c-138.9,0-251.5,112.6-251.5,251.5
	C53.7,499,166.3,611.6,305.2,611.6z"/>
<linearGradient id="SVGID_2_" gradientUnits="userSpaceOnUse" x1="144.6971" y1="574.0435" x2="477.9341" y2="174.8914" gradientTransform="matrix(1 0 0 -1 0 742)">
	<stop  offset="0" style="stop-color:#2D376D"/>
	<stop  offset="1" style="stop-color:#161D38"/>
</linearGradient>
<path class="st1" d="M305.2,611.6c138.9,0,251.5-112.6,251.5-251.5c0-138.9-112.6-251.5-251.5-251.5
	c-138.9,0-251.5,112.6-251.5,251.5C53.7,499,166.3,611.6,305.2,611.6z M271.8,457l123.8-85.6c7-4.9,7-15.2,0-20.1l-123.8-85.6
	c-8.1-5.6-19.1,0.2-19.1,10V447C252.7,456.8,263.7,462.6,271.8,457z"/>
<linearGradient id="SVGID_3_" gradientUnits="userSpaceOnUse" x1="135.7751" y1="566.5948" x2="469.0121" y2="167.4427" gradientTransform="matrix(1 0 0 -1 0 742)">
	<stop  offset="0" style="stop-color:#FFFFFF"/>
	<stop  offset="1" style="stop-color:#FFFFFF"/>
</linearGradient>
<path class="st2" d="M395.6,371.4L271.8,457c-8.1,5.6-19.1-0.2-19.1-10V275.8c0-9.8,11.1-15.6,19.1-10l123.8,85.6
	C402.6,356.2,402.6,366.6,395.6,371.4z"/>
<linearGradient id="SVGID_4_" gradientUnits="userSpaceOnUse" x1="160.2766" y1="555.382" x2="461.1596" y2="194.9841" gradientTransform="matrix(1 0 0 -1 0 742)">
	<stop  offset="0" style="stop-color:#252D55"/>
	<stop  offset="1" style="stop-color:#101428"/>
</linearGradient>
<path class="st3" d="M305.2,587.2c125.4,0,227-101.7,227-227c0-125.4-101.7-227-227-227c-125.4,0-227,101.6-227,227
	C78.1,485.6,179.8,587.2,305.2,587.2z M275.1,447.6l111.8-77.3c6.3-4.4,6.3-13.7,0-18.1l-111.8-77.3c-7.3-5.1-17.3,0.2-17.3,9.1
	v154.6C257.8,447.4,267.7,452.7,275.1,447.6z"/>
<linearGradient id="SVGID_5_" gradientUnits="userSpaceOnUse" x1="152.2208" y1="548.6566" x2="453.1038" y2="188.2586" gradientTransform="matrix(1 0 0 -1 0 742)">
	<stop  offset="0" style="stop-color:#FFFFFF"/>
	<stop  offset="1" style="stop-color:#FFFFFF"/>
</linearGradient>
<path class="st4" d="M386.8,370.3l-111.8,77.3c-7.3,5.1-17.3-0.2-17.3-9.1V284c0-8.9,10-14.1,17.3-9.1l111.8,77.3
	C393.2,356.6,393.2,365.9,386.8,370.3z"/>
<path class="st5" d="M656.8,116.8h84.8L862,313.6h0.8V116.8h62.4V400h-81.6L720,198.4h-0.8V400h-62.4V116.8z M967.8,258.4
	c0-22.7,3.7-43.2,11.2-61.6c7.7-18.4,18.4-34,32-46.8c13.6-13.1,29.7-23.1,48.4-30c18.7-6.9,39.1-10.4,61.2-10.4
	c22.1,0,42.5,3.5,61.2,10.4c18.7,6.9,34.8,16.9,48.4,30c13.6,12.8,24.1,28.4,31.6,46.8c7.7,18.4,11.6,38.9,11.6,61.6
	s-3.9,43.2-11.6,61.6c-7.5,18.4-18,34.1-31.6,47.2c-13.6,12.8-29.7,22.7-48.4,29.6c-18.7,6.9-39.1,10.4-61.2,10.4
	c-22.1,0-42.5-3.5-61.2-10.4c-18.7-6.9-34.8-16.8-48.4-29.6c-13.6-13.1-24.3-28.8-32-47.2C971.5,301.6,967.8,281.1,967.8,258.4z
	 M1032.6,258.4c0,13.3,2,25.6,6,36.8c4.3,10.9,10.3,20.5,18,28.8c7.7,8,16.9,14.3,27.6,18.8c10.9,4.5,23.1,6.8,36.4,6.8
	c13.3,0,25.3-2.3,36-6.8c10.9-4.5,20.3-10.8,28-18.8c7.7-8.3,13.6-17.9,17.6-28.8c4.3-11.2,6.4-23.5,6.4-36.8
	c0-13.1-2.1-25.2-6.4-36.4c-4-11.2-9.9-20.8-17.6-28.8c-7.7-8.3-17.1-14.7-28-19.2c-10.7-4.5-22.7-6.8-36-6.8
	c-13.3,0-25.5,2.3-36.4,6.8c-10.7,4.5-19.9,10.9-27.6,19.2c-7.7,8-13.7,17.6-18,28.8C1034.6,233.2,1032.6,245.3,1032.6,258.4z
	 M1286.2,116.8h68l45.2,181.6h0.8l59.2-181.6h58l58.8,186.4h0.8l47.6-186.4h63.2L1605,400h-55.6L1487,204h-0.8l-62.4,196h-53.6
	L1286.2,116.8z"/>
<path class="st5" d="M655.8,439h59.5c8.5,0,16.7,0.8,24.5,2.5c8,1.7,15,4.5,21,8.5c6,3.8,10.8,9.1,14.3,15.8
	c3.7,6.5,5.5,14.7,5.5,24.5c0,11.2-1.9,20.2-5.8,27s-9,12.2-15.5,16c-6.5,3.7-14.1,6.2-22.8,7.5c-8.5,1.3-17.4,2-26.8,2h-22.5V616
	h-31.5V439z M706.3,515.8c4.5,0,9.2-0.2,14-0.5s9.3-1.3,13.3-3c4.2-1.7,7.5-4.2,10-7.5c2.7-3.3,4-8,4-14c0-5.5-1.2-9.8-3.5-13
	c-2.3-3.3-5.3-5.8-9-7.5c-3.7-1.8-7.8-3-12.3-3.5s-8.8-0.8-13-0.8h-22.5v49.8H706.3z M808.6,439h31.5v148.5h75.3V616H808.6V439z
	 M995.5,439h27.2l76.3,177h-36l-16.5-40.5h-76.7l-16,40.5h-35.3L995.5,439z M1035.5,548.5l-27.3-72l-27.7,72H1035.5z M1143.3,540.3
	L1076.8,439h39.5l43.5,70.5l44-70.5h37.5l-66.5,101.3V616h-31.5V540.3z M1256.8,439h31.5v177h-31.5V439z M1327.1,439h41.8
	l85.8,131.5h0.5V439h31.5v177h-40l-87.5-135.8h-0.5V616h-31.5V439z M1683.4,603c-21.8,11.7-46.3,17.5-73.3,17.5
	c-13.7,0-26.3-2.2-37.8-6.5c-11.3-4.5-21.2-10.8-29.5-18.8c-8.2-8.2-14.6-17.9-19.3-29.3s-7-23.9-7-37.8c0-14.2,2.3-27,7-38.5
	c4.7-11.7,11.1-21.6,19.3-29.8c8.3-8.2,18.2-14.4,29.5-18.8c11.5-4.5,24.1-6.8,37.8-6.8c13.5,0,26.2,1.7,38,5
	c11.8,3.2,22.4,8.9,31.8,17.3l-23.3,23.5c-5.7-5.5-12.6-9.8-20.8-12.8c-8-3-16.5-4.5-25.5-4.5c-9.2,0-17.5,1.7-25,5
	c-7.3,3.2-13.7,7.7-19,13.5c-5.3,5.7-9.5,12.3-12.5,20c-2.8,7.7-4.3,15.9-4.3,24.8c0,9.5,1.4,18.3,4.3,26.3c3,8,7.2,14.9,12.5,20.8
	s11.7,10.4,19,13.8c7.5,3.3,15.8,5,25,5c8,0,15.5-0.8,22.5-2.3c7.2-1.5,13.5-3.8,19-7V541h-36.3v-28.5h67.8V603z"/>
</svg>
