<?xml version="1.0" encoding="utf-8"?>
<!-- Generator: Adobe Illustrator 26.0.2, SVG Export Plug-In . SVG Version: 6.00 Build 0)  -->
<svg version="1.1" id="Layer_1" xmlns="http://www.w3.org/2000/svg" xmlns:xlink="http://www.w3.org/1999/xlink" x="0px" y="0px"
	 viewBox="0 0 286.5 71.3" style="enable-background:new 0 0 286.5 71.3;" xml:space="preserve">
<style type="text/css">
	.st0{fill:#0B0B0B;}
</style>
<polygon class="st0" points="264.9,0 286.5,0 237.6,71.3 216,71.3 "/>
<polygon class="st0" points="167,0 188.6,0 139.7,71.3 118.1,71.3 "/>
<polygon class="st0" points="215.9,0 237.5,0 188.7,71.3 167,71.3 "/>
<g transform="matrix(.89531 0 0 .89531 -12.534 -25.387)">
	<polygon class="st0" points="224.6,108 170,28.4 145.9,28.4 200.5,108 	"/>
	<polygon class="st0" points="279.3,108 224.7,28.4 200.6,28.4 255.2,108 	"/>
	<polygon class="st0" points="334,108 279.4,28.4 255.3,28.4 309.9,108 	"/>
	<rect x="117" y="28.4" class="st0" width="20.7" height="79.6"/>
	<polygon class="st0" points="87.4,108 107.9,108 107.9,28.4 85.6,28.4 60.9,68.1 36.3,28.4 14,28.4 14,108 34.2,108 34.2,61.4 
		60.4,101.1 60.9,101.1 87.4,61 	"/>
</g>
<path class="st0" d="M118.1,0l22.7,33.2c7.5,0.1,14.8,0.3,22.1,0.7L139.7,0L118.1,0z M167,0l24.5,35.7c8,0.7,15.8,1.5,23.3,2.4
	L188.7,0L167,0z M237.6,0H216l29.4,42.8c9,1.7,17.5,3.5,25.4,5.6L237.6,0z M92.2,33.9c6.1-0.3,12.2-0.5,18.5-0.6V0H92.2V33.9z
	 M42,35.6L19.9,0H0v45.1c5.8-1.2,11.8-2.4,18.1-3.5V29.6l7.2,10.9c11.3-1.8,23.3-3.2,35.8-4.4l4.5-6.9v6.5c6-0.5,12.1-1,18.4-1.3V0
	H64.1L42,35.6z"/>
<path class="st0" d="M191.4,35.5l0.2,0.2c8,0.7,15.8,1.5,23.3,2.4l-0.2-0.2C207.1,37,199.4,36.2,191.4,35.5L191.4,35.5z M0,45.1
	c5.8-1.2,11.8-2.4,18.1-3.5v-0.9C11.8,41.7,5.8,42.8,0,44V45.1z M270.6,48.2c-7.8-2-16.3-3.9-25.5-5.6l0.2,0.3
	c9,1.7,17.5,3.5,25.4,5.6L270.6,48.2z M140.7,32.9l0.2,0.3c7.5,0.1,14.8,0.3,22.1,0.7l-0.2-0.2C155.5,33.3,148.1,33.1,140.7,32.9
	L140.7,32.9z M92.2,33.9c6.1-0.3,12.2-0.5,18.5-0.6v-0.3c-6.2,0.1-12.4,0.3-18.5,0.5V33.9z M25.3,40.5c11.3-1.8,23.3-3.2,35.8-4.4
	l0.4-0.6c-12.9,1.1-25.2,2.5-36.7,4.2L25.3,40.5z M65.7,35.7c6-0.5,12.1-1,18.4-1.3v-0.5c-6.2,0.3-12.4,0.7-18.4,1.2V35.7z"/>
<polygon class="st0" points="110.7,0 110.2,0 110.7,71.3 "/>
<polygon class="st0" points="84.1,71.3 84.1,0 83.5,0 "/>
<polygon class="st0" points="92.2,0 92.2,71.3 92.7,71.3 "/>
<polygon class="st0" points="0,71.3 0.5,71.3 0,0 "/>
<g transform="matrix(2.0694 0 0 2.0694 2e-6 -366.66)">
	<polygon class="st0" points="67.5,177.2 90.9,211.6 91.1,211.6 	"/>
	<polygon class="st0" points="57.1,177.2 80.7,211.6 57.4,177.2 	"/>
	<polygon class="st0" points="91.2,177.2 114.6,211.6 114.8,211.6 	"/>
	<polygon class="st0" points="80.7,177.2 104.3,211.6 81,177.2 	"/>
	<polygon class="st0" points="114.8,177.2 138.2,211.6 138.4,211.6 	"/>
	<polygon class="st0" points="128,211.6 104.7,177.2 104.4,177.2 	"/>
</g>
<polygon class="st0" points="65.7,71.3 66.1,71.3 65.7,29.2 "/>
<polygon class="st0" points="18.1,29.5 17.7,29 18.1,71.3 "/>
<path class="st0" d="M42,35.6L19.9,0h-0.6L42,36.1L64.1,0L42,35.6z"/>
<polygon class="st0" points="42,65.1 65.7,29.2 41.8,64.9 18.1,29.5 41.5,65.1 "/>
<g>
	<polygon class="st0" points="84.1,0.6 64.1,0 84.1,0 	"/>
	<polygon class="st0" points="92.2,0 110.7,0 110.7,0.6 	"/>
	<g>
		<path class="st0" d="M118.1,0l0.4,0.5L139.7,0L118.1,0z"/>
		<path class="st0" d="M20.3,0.6L0,0h19.9L20.3,0.6z"/>
		<path class="st0" d="M167.1,0l0.4,0.5L188.7,0L167.1,0z"/>
		<path class="st0" d="M216,0l0.4,0.5L237.6,0L216,0z"/>
	</g>
</g>
</svg>
