<?xml version="1.0" encoding="utf-8"?>
<!-- Generator: Adobe Illustrator 26.0.2, SVG Export Plug-In . SVG Version: 6.00 Build 0)  -->
<svg version="1.1" id="レイヤー_1" xmlns="http://www.w3.org/2000/svg" xmlns:xlink="http://www.w3.org/1999/xlink" x="0px"
	 y="0px" viewBox="0 0 420 58" style="enable-background:new 0 0 420 58;" xml:space="preserve">
<style type="text/css">
	.st0{fill:#0B0B0B;}
	.st1{fill:#C2143D;}
</style>
<path class="st0" d="M276.9,0.6v11.5h-13.5c-2.9,0-5.8,0.2-8.6,0.7c-4.6,0.8-7.4,5-7.9,9.3c-0.5,5-0.5,10.1,0,15.1
	c0.4,4.3,3.2,8.5,7.9,9.3c2.9,0.5,5.8,0.7,8.6,0.7h22.4V0.6H276.9z M276.9,40.2H266c-9.4,0-10.6-1.2-10.6-10.5s1.2-10.5,10.6-10.5
	h10.9L276.9,40.2z"/>
<path class="st0" d="M332,22.1c-0.4-4.2-3.2-8.5-7.8-9.3c-2.9-0.5-5.8-0.7-8.7-0.7H302V0.6h-8.9v46.6h22.4c2.9,0,5.8-0.2,8.7-0.7
	c4.6-0.8,7.4-5,7.8-9.3C332.5,32.2,332.5,27.1,332,22.1z M312.9,40.2H302v-21h10.9c9.4,0,10.6,1.2,10.6,10.5S322.3,40.2,312.9,40.2z
	"/>
<path class="st1" d="M213.2,21.9c-0.6-4.8-4.3-8.6-9.1-9.3c-6.7-0.9-13.5-0.9-20.1,0c-4.8,0.6-8.6,4.5-9.1,9.3
	c-0.6,5.2-0.6,10.3,0,15.5c0.6,4.8,4.3,8.7,9.2,9.3c6.7,0.9,13.5,0.9,20.1,0c4.8-0.6,8.6-4.5,9.1-9.3
	C213.8,32.3,213.8,27.1,213.2,21.9z M204.5,35.3c-0.1,1.8-1.1,3.3-2.6,4.1c-1.3,0.6-2.7,0.9-4.1,0.8c-3.1,0.2-6.2,0.1-9.3-0.1
	c-1.9,0-3.5-1.1-4.3-2.8c-0.5-1.2-0.8-2.5-0.7-3.8c-0.2-3.2-0.1-6.4,0.1-9.5c0-1.8,1.1-3.3,2.6-4.1c1.3-0.6,2.7-0.9,4.1-0.9
	c3.1-0.2,6.2-0.1,9.3,0.1c1.9,0,3.6,1.1,4.3,2.9c0.5,1.2,0.8,2.5,0.7,3.8C204.8,29,204.8,32.2,204.5,35.3z"/>
<path class="st1" d="M376.4,21.9c-0.6-4.8-4.3-8.6-9.1-9.3c-6.7-0.9-13.5-0.9-20.1,0c-4.8,0.6-8.6,4.5-9.1,9.3
	c-0.6,5.2-0.6,10.3,0,15.5c0.6,4.8,4.3,8.6,9.1,9.3c6.7,0.9,13.5,0.9,20.1,0c4.8-0.6,8.6-4.5,9.1-9.3C377,32.3,377,27.1,376.4,21.9z
	 M367.7,35.3c-0.1,1.8-1.1,3.3-2.6,4.1c-1.3,0.6-2.7,0.9-4.1,0.8c-3.1,0.2-6.2,0.1-9.3-0.1c-1.9,0-3.5-1.1-4.3-2.8
	c-0.5-1.2-0.8-2.5-0.7-3.8c-0.2-3.2-0.1-6.4,0.1-9.5c0-1.8,1.1-3.3,2.6-4.1c1.3-0.6,2.7-0.9,4.1-0.8c3.1-0.2,6.2-0.1,9.3,0.1
	c1.9,0,3.5,1.1,4.3,2.8c0.5,1.2,0.8,2.5,0.7,3.8C368,29,368,32.2,367.7,35.3z"/>
<path class="st1" d="M233.6,19.4c-0.7,0.1-1.4,0.3-2,0.7c-0.4,0.2-0.8,0.5-1.2,0.8c-0.5,0.4-0.8,0.9-1.1,1.5
	c-0.3,0.8-0.4,1.6-0.4,2.4c-0.1,1.7-0.1,3.5-0.1,5.2v17.3h-9V29.7c0-2.5,0.1-5,0.4-7.6c0.1-1.2,0.4-2.5,1.1-3.5
	c0.5-1.1,1.3-2.1,2.2-2.9c0.9-0.9,2-1.6,3.1-2.1c1.4-0.5,2.9-0.9,4.5-1c1.2-0.2,2.5-0.2,3.8-0.3c2.5-0.1,8.6-0.2,8.6-0.2v7
	C240.1,19,236.8,19.1,233.6,19.4z"/>
<path class="st1" d="M81.9,19.4c-0.7,0.1-1.4,0.3-2,0.7c-0.4,0.2-0.8,0.5-1.2,0.8c-0.5,0.4-0.8,0.9-1.1,1.5
	c-0.3,0.8-0.4,1.6-0.4,2.4c-0.2,1.7-0.1,3.5-0.1,5.2v17.3h-9V29.7c0-2.5,0.1-5,0.4-7.6c0.1-1.2,0.4-2.5,1.1-3.5
	c0.5-1.1,1.3-2.1,2.2-2.9c0.9-0.9,2-1.6,3.1-2.1c1.4-0.5,2.9-0.9,4.5-1c1.2-0.2,2.5-0.2,3.7-0.3c2.5-0.1,8.6-0.2,8.6-0.2v7
	C88.4,19,85.2,19.1,81.9,19.4z"/>
<path class="st1" d="M155.7,29.7l17.9-17.6h-9.8l-13.1,14h-0.9c0,0,0-10.1,0-14.1h-8.9v35.1h8.9c0-4,0-14.1,0-14.1h0.9l13.1,14.1
	h9.8L155.7,29.7z"/>
<polygon class="st1" points="420,12.1 410.2,12.1 399,24.4 387.7,12.1 377.9,12.1 394.1,29.7 377.9,47.2 387.7,47.2 399,35 
	410.2,47.2 420,47.2 403.9,29.7 "/>
<path class="st1" d="M133.7,36.9h-8.9c-0.1,0.3-0.2,0.7-0.2,0.7c-0.3,1.4-1.6,2.3-3,2.3c-4.7,0.5-9.5,0.5-14.3,0
	c-1.6-0.2-2.9-1.5-3.2-3.1c-0.2-1.7-0.3-3.9-0.4-5.6h30.3v-1c0-2.8-0.1-5.6-0.4-8.3c-0.6-4.8-4.3-8.6-9.1-9.3
	c-6.7-0.9-13.5-0.9-20.2,0c-4.8,0.6-8.6,4.5-9.1,9.3c-0.6,5.2-0.6,10.3,0,15.5c0.6,4.8,4.3,8.6,9.1,9.3c6.7,0.9,13.5,0.9,20.2,0
	c0.4-0.1,0.9-0.2,1.3-0.3c0.4-0.1,0.8-0.3,1.2-0.4c0.4-0.2,0.8-0.3,1.2-0.6c1.1-0.6,2.2-1.5,3-2.5c0.3-0.3,0.5-0.6,0.8-1
	c0.2-0.4,0.5-0.7,0.6-1.1c0.3-0.6,0.5-1.1,0.7-1.8c0.2-0.6,0.3-1.2,0.4-1.8C133.7,37.2,133.7,37.1,133.7,36.9z M104.2,22.4
	c0.2-1.6,1.5-2.9,3.2-3.1c4.7-0.5,9.5-0.5,14.3,0c1.6,0.2,2.9,1.4,3.2,3.1c0.1,1.2,0.2,2.4,0.3,3.6h-21.2
	C104,24.8,104.1,23.6,104.2,22.4z"/>
<path class="st0" d="M34.3,29.7c0,4.4-3.6,8-8,8s-8-3.6-8-8s3.6-8,8-8S34.3,25.3,34.3,29.7z"/>
<path class="st0" d="M26.3,12.2c4.9,0,9.6,2.1,12.9,5.7l9.7-5.6L28.4,0.6c-1.3-0.8-3-0.8-4.3,0L3.7,12.4l9.7,5.6
	C16.7,14.3,21.4,12.2,26.3,12.2z"/>
<path class="st0" d="M42.9,24.4c0.6,1.7,0.8,3.5,0.8,5.3C43.7,37.9,38,45,30,46.8v11.1l20.4-11.8c1.3-0.8,2.2-2.2,2.2-3.7V18.8
	L42.9,24.4z"/>
<path class="st0" d="M8.8,29.7c0-1.8,0.3-3.6,0.8-5.3L0,18.8v23.6c0,1.5,0.8,3,2.2,3.7l20.4,11.8V46.8C14.5,45,8.8,37.9,8.8,29.7z"
	/>
</svg>
