<?xml version="1.0" encoding="utf-8"?>
<!-- Generator: Adobe Illustrator 26.0.2, SVG Export Plug-In . SVG Version: 6.00 Build 0)  -->
<svg version="1.1" id="Layer_1" xmlns="http://www.w3.org/2000/svg" xmlns:xlink="http://www.w3.org/1999/xlink" x="0px" y="0px"
	 viewBox="0 0 585.1 228.2" style="enable-background:new 0 0 585.1 228.2;" xml:space="preserve">
<style type="text/css">
	.st0{fill:#0B0B0B;}
</style>
<g>
	<g>
		<g>
			<g>
				<g>
					<g>
						<path class="st0" d="M296.3,63.8l0,0.3c2.1-27.9,29.3-32.5,53.6-32.5c37.2,0,46.4,11.5,48.7,25.8l0,0.1l0.1,1.3l0-0.1
							c0.6,4.4,0.6,9.1,0.6,13.7v42.8c0,7.9,0.4,16.7,4.8,23.3h-40.6c-1-2.8-1.6-7-1.4-9.8h-0.4c-8.4,9.6-20.7,12.5-33.6,12.5
							c-20.1,0-36.8-9.6-36.8-31.6c0-33,38.6-31.8,58.9-35.6c5.4-1,10.9-2.6,10.9-9.2c0-7-6.6-9.6-13.1-9.6
							c-12.3,0-14.7,6.2-14.9,10.7h-37h0.1 M361.2,91.7c-4.8,2.4-10.2,3.8-15.7,5c-8.8,2-13.5,4.2-13.5,11.2c0,4.8,5.2,9.7,12.5,9.7
							c9,0,16.1-5.4,16.7-16.3V91.7z"/>
					</g>
				</g>
			</g>
			<g>
				<g>
					<g>
						<path class="st0" d="M477.4,56.6c8.6-14.8,24.7-25,49.4-25c39.2,0,56.9,25.7,56.9,54.7c0,28.9-17.7,54.9-56.9,54.9
							c-24.7,0-40.9-10.3-49.4-25.1l0,0.1v22.4c-8.1,0-17.1,1.2-25.5,1.2c-16.9,0-35.6-2.6-35.6-31.2V58.7h-17.6l0-0.1
							c0.6,4.4,0.6,9.1,0.6,13.7v42.8c0,7.9,0.4,16.7,4.8,23.3h-40.6c-1-2.8-1.6-7-1.4-9.8h-0.4c-8.4,9.6-20.7,12.5-33.6,12.5
							c-20.1,0-36.8-9.6-36.8-31.6c0-33,38.6-31.8,58.9-35.6c5.4-1,10.9-2.6,10.9-9.2c0-7-6.6-9.6-13.1-9.6
							c-12.3,0-14.7,6.2-14.9,10.7h-37h0.1v2.6c-4-1.4-7.6-2.6-15.7-2.6c-15.7,0-24.1,9.2-24.1,31.5v41.2h-39.8V95.3h0h-75.2
							c1,11.9,7.8,20.3,20.3,20.3c6.4,0,13.5-2.4,16.7-7.4h37.2c-8,22.5-29.9,33-53.7,33c-26.6,0-48-12.5-55.5-35.2l0,0.3
							c-1.2,27.4-28.2,34.9-53,34.9c-24.5,0-51.4-9.8-52.1-36.8h38c0.2,3.6,1.8,6.6,4.8,9.2c2,1.8,5.8,3,10.7,3
							c5.2,0,13.5-2,13.5-8.1c0-6-3.4-7.8-21.9-11C16.1,92.3,3.8,82.7,3.8,64.8c0-26.3,28.3-33.2,49.2-33.2c22.5,0,49.6,6.2,50.7,33
							H67.5c-0.2-3.4-2-6-4.6-7.8c-2.4-2-5.6-3-8.9-3c-5.6,0-12,1.2-12,8.1c0,3,2.4,4.4,4.6,5.4c6.6,2.8,21.7,3.6,35,8
							c9.3,3,17.8,7.7,22.1,16.2l0,0.1c-0.1-1.6-0.2-3.2-0.2-4.8c0-30.4,22.1-55.1,55.1-55.1c35.4,0,53.6,16.9,58.1,47.3l0-0.5V34.2
							h38.2v16.7h0.4c6.4-12.5,14.9-19.3,29.3-19.3c4,0,7.8,0.6,11.7,1.6v30.6l0,0.3c2.1-27.9,29.3-32.5,53.6-32.5
							c37.2,0,46.4,11.5,48.7,25.8l0,0.1V34.2h17.7V2.4h39.8v31.8h21.3L477.4,56.6L477.4,56.6z M179.7,74.6
							c0-9.6-7.2-17.5-17.5-17.5c-11.9,0-18.7,6.2-20.5,17.5H179.7z M361.2,91.7c-4.8,2.4-10.2,3.8-15.7,5
							c-8.8,2-13.5,4.2-13.5,11.2c0,4.8,5.2,9.7,12.5,9.7c9,0,16.1-5.4,16.7-16.3V91.7z M456.1,58.7v36.4c0,9.6,2.2,13.9,12.2,13.9
							c1.9,0,3.7-0.1,5.6-0.2l0,0.1c-2.7-7-4-14.7-4-22.6c0-9.9,2-19.4,6.3-27.6L456.1,58.7z M526.8,60.5
							c-15.1,0-17.1,14.7-17.1,25.7c0,11,2,25.9,17.1,25.9c15.1,0,17.1-14.9,17.1-25.9C543.9,75.2,541.9,60.5,526.8,60.5z"/>
					</g>
				</g>
			</g>
		</g>
	</g>
	<g>
		<path class="st0" d="M48.4,162.2v4.1H30.9v46.1h-4.8v-46.1H8.7v-4.1H48.4z"/>
		<path class="st0" d="M56.3,162.2v20.2h0.1c0.8-2.2,2.3-4,4.5-5.3c2.2-1.3,4.5-2,7.1-2c2.5,0,4.6,0.3,6.4,1
			c1.7,0.7,3.1,1.6,4.1,2.8c1,1.2,1.8,2.7,2.2,4.4c0.4,1.7,0.6,3.7,0.6,5.8v23.3h-4.4v-22.6c0-1.5-0.1-3-0.4-4.3
			c-0.3-1.3-0.8-2.5-1.5-3.5c-0.7-1-1.7-1.8-2.8-2.3c-1.2-0.6-2.7-0.8-4.5-0.8c-1.8,0-3.4,0.3-4.7,0.9c-1.4,0.6-2.6,1.5-3.5,2.6
			c-1,1.1-1.7,2.4-2.2,3.9c-0.5,1.5-0.8,3.2-0.9,5v21.1h-4.4v-50.2H56.3z"/>
		<path class="st0" d="M91.2,200.4c0.4,1.7,1.2,3.2,2.1,4.6c1,1.4,2.2,2.5,3.7,3.4c1.5,0.9,3.3,1.3,5.4,1.3c3.2,0,5.8-0.8,7.6-2.5
			c1.8-1.7,3.1-3.9,3.8-6.7h4.4c-0.9,4.1-2.7,7.3-5.2,9.6c-2.5,2.2-6.1,3.4-10.6,3.4c-2.9,0-5.3-0.5-7.4-1.5c-2.1-1-3.8-2.4-5.1-4.1
			c-1.3-1.8-2.3-3.8-2.9-6.1c-0.6-2.3-0.9-4.8-0.9-7.3c0-2.4,0.3-4.7,0.9-7c0.6-2.3,1.6-4.3,2.9-6.1c1.3-1.8,3-3.3,5.1-4.4
			c2.1-1.1,4.6-1.7,7.4-1.7c2.9,0,5.4,0.6,7.4,1.8c2.1,1.2,3.7,2.7,5,4.6c1.3,1.9,2.2,4.1,2.8,6.5s0.8,5,0.7,7.5H90.5
			C90.5,197.1,90.7,198.7,91.2,200.4z M113.1,186.9c-0.5-1.5-1.3-2.9-2.3-4.1c-1-1.2-2.2-2.2-3.6-2.9c-1.4-0.7-3-1.1-4.8-1.1
			c-1.8,0-3.4,0.4-4.8,1.1c-1.4,0.7-2.6,1.7-3.6,2.9c-1,1.2-1.8,2.6-2.4,4.1c-0.6,1.6-1,3.2-1.2,4.8H114
			C113.9,190.1,113.6,188.4,113.1,186.9z"/>
		<path class="st0" d="M144.5,176.2v6.9h0.1c1-2.5,2.7-4.5,5-5.9c2.3-1.4,5-2.1,7.9-2.1c2.8,0,5.2,0.5,7.2,1.5c2,1,3.7,2.4,5.1,4.2
			c1.4,1.8,2.4,3.8,3,6.1c0.7,2.3,1,4.8,1,7.3s-0.3,5-1,7.3c-0.7,2.3-1.7,4.4-3,6.1c-1.4,1.8-3.1,3.1-5.1,4.1c-2,1-4.4,1.5-7.2,1.5
			c-1.3,0-2.6-0.2-3.9-0.5c-1.3-0.3-2.5-0.8-3.7-1.5c-1.1-0.7-2.1-1.5-3-2.5c-0.9-1-1.5-2.1-2-3.4h-0.1v20.2h-4.4v-49.6H144.5z
			 M168.7,188.7c-0.4-1.8-1.1-3.5-2.1-5c-1-1.5-2.2-2.6-3.7-3.5c-1.5-0.9-3.3-1.4-5.4-1.4c-2.4,0-4.5,0.4-6.1,1.3
			c-1.6,0.8-3,2-3.9,3.4c-1,1.4-1.7,3-2.1,4.9c-0.4,1.9-0.6,3.8-0.6,5.9c0,1.9,0.2,3.7,0.7,5.6c0.4,1.9,1.2,3.5,2.2,5
			c1,1.5,2.3,2.6,3.9,3.5c1.6,0.9,3.6,1.4,5.9,1.4c2.1,0,3.9-0.5,5.4-1.4c1.5-0.9,2.7-2.1,3.7-3.5c1-1.5,1.7-3.1,2.1-5
			c0.4-1.8,0.7-3.7,0.7-5.6C169.4,192.4,169.2,190.5,168.7,188.7z"/>
		<path class="st0" d="M202.2,176.6c2.1,1,3.9,2.4,5.4,4.1c1.5,1.7,2.6,3.8,3.3,6.1c0.7,2.3,1.1,4.8,1.1,7.4s-0.4,5.1-1.1,7.4
			c-0.7,2.3-1.9,4.3-3.3,6.1c-1.5,1.7-3.2,3.1-5.4,4.1c-2.1,1-4.6,1.5-7.3,1.5c-2.8,0-5.2-0.5-7.3-1.5c-2.1-1-3.9-2.4-5.4-4.1
			c-1.5-1.7-2.6-3.8-3.3-6.1c-0.7-2.3-1.1-4.8-1.1-7.4s0.4-5.1,1.1-7.4c0.7-2.3,1.8-4.3,3.3-6.1c1.5-1.7,3.2-3.1,5.4-4.1
			c2.1-1,4.6-1.5,7.3-1.5C197.6,175.1,200.1,175.6,202.2,176.6z M189.3,180.2c-1.6,0.9-2.9,2.1-4,3.5c-1.1,1.5-1.9,3.1-2.4,5
			c-0.5,1.9-0.8,3.7-0.8,5.7c0,1.9,0.3,3.8,0.8,5.7c0.5,1.9,1.3,3.5,2.4,5c1.1,1.5,2.4,2.6,4,3.5c1.6,0.9,3.4,1.3,5.5,1.3
			c2.1,0,4-0.4,5.6-1.3c1.6-0.9,2.9-2.1,4-3.5c1.1-1.5,1.8-3.1,2.4-5c0.5-1.8,0.8-3.7,0.8-5.7c0-1.9-0.3-3.8-0.8-5.7
			c-0.5-1.8-1.3-3.5-2.4-5c-1.1-1.5-2.4-2.6-4-3.5c-1.6-0.9-3.4-1.3-5.6-1.3C192.8,178.8,190.9,179.3,189.3,180.2z"/>
		<path class="st0" d="M217.3,176.2l9.3,31.1h0.1l8.9-31.1h5l8.9,31.1h0.1l9.3-31.1h4.7l-11.7,36.3H247l-8.9-30.5H238l-8.9,30.5
			h-4.8l-11.7-36.3H217.3z"/>
		<path class="st0" d="M269.4,200.4c0.4,1.7,1.2,3.2,2.1,4.6c1,1.4,2.2,2.5,3.7,3.4c1.5,0.9,3.3,1.3,5.4,1.3c3.2,0,5.8-0.8,7.6-2.5
			c1.8-1.7,3.1-3.9,3.8-6.7h4.4c-0.9,4.1-2.7,7.3-5.2,9.6c-2.5,2.2-6.1,3.4-10.6,3.4c-2.9,0-5.3-0.5-7.4-1.5c-2.1-1-3.8-2.4-5.1-4.1
			c-1.3-1.8-2.3-3.8-2.9-6.1c-0.6-2.3-0.9-4.8-0.9-7.3c0-2.4,0.3-4.7,0.9-7c0.6-2.3,1.6-4.3,2.9-6.1c1.3-1.8,3-3.3,5.1-4.4
			c2.1-1.1,4.6-1.7,7.4-1.7c2.9,0,5.4,0.6,7.4,1.8c2.1,1.2,3.7,2.7,5,4.6c1.3,1.9,2.2,4.1,2.8,6.5c0.6,2.5,0.8,5,0.7,7.5h-27.9
			C268.7,197.1,268.9,198.7,269.4,200.4z M291.3,186.9c-0.5-1.5-1.3-2.9-2.3-4.1c-1-1.2-2.2-2.2-3.6-2.9c-1.4-0.7-3-1.1-4.8-1.1
			c-1.8,0-3.4,0.4-4.8,1.1c-1.4,0.7-2.6,1.7-3.6,2.9c-1,1.2-1.8,2.6-2.4,4.1c-0.6,1.6-1,3.2-1.2,4.8h23.5
			C292.1,190.1,291.8,188.4,291.3,186.9z"/>
		<path class="st0" d="M305.3,176.2v8.5h0.1c1.1-3,2.9-5.2,5.2-6.8c2.4-1.6,5.2-2.3,8.5-2.2v4.4c-2-0.1-3.8,0.2-5.5,0.8
			c-1.6,0.6-3.1,1.5-4.2,2.7c-1.2,1.2-2.1,2.6-2.8,4.2c-0.7,1.6-1,3.4-1,5.3v19.3h-4.4v-36.3H305.3z"/>
		<path class="st0" d="M362.1,176.6c2.1,1,3.9,2.4,5.4,4.1c1.5,1.7,2.6,3.8,3.3,6.1c0.7,2.3,1.1,4.8,1.1,7.4s-0.4,5.1-1.1,7.4
			c-0.7,2.3-1.9,4.3-3.3,6.1c-1.5,1.7-3.2,3.1-5.4,4.1c-2.1,1-4.6,1.5-7.3,1.5c-2.8,0-5.2-0.5-7.3-1.5c-2.1-1-3.9-2.4-5.4-4.1
			c-1.5-1.7-2.6-3.8-3.3-6.1c-0.7-2.3-1.1-4.8-1.1-7.4s0.4-5.1,1.1-7.4c0.7-2.3,1.8-4.3,3.3-6.1c1.5-1.7,3.2-3.1,5.4-4.1
			c2.1-1,4.6-1.5,7.3-1.5C357.5,175.1,359.9,175.6,362.1,176.6z M349.2,180.2c-1.6,0.9-2.9,2.1-4,3.5c-1.1,1.5-1.9,3.1-2.4,5
			c-0.5,1.9-0.8,3.7-0.8,5.7c0,1.9,0.3,3.8,0.8,5.7c0.5,1.9,1.3,3.5,2.4,5c1.1,1.5,2.4,2.6,4,3.5c1.6,0.9,3.4,1.3,5.6,1.3
			c2.1,0,4-0.4,5.6-1.3c1.6-0.9,2.9-2.1,4-3.5c1.1-1.5,1.9-3.1,2.4-5c0.5-1.8,0.8-3.7,0.8-5.7c0-1.9-0.3-3.8-0.8-5.7
			c-0.5-1.8-1.3-3.5-2.4-5c-1.1-1.5-2.4-2.6-4-3.5c-1.6-0.9-3.4-1.3-5.6-1.3C352.6,178.8,350.8,179.3,349.2,180.2z"/>
		<path class="st0" d="M383.5,179.9v32.5h-4.4v-32.5h-6.2v-3.7h6.2v-3.3c0-1.5,0.1-3,0.4-4.3c0.2-1.3,0.7-2.4,1.3-3.4
			c0.7-0.9,1.6-1.7,2.7-2.2c1.1-0.5,2.6-0.8,4.4-0.8c0.7,0,1.3,0,1.8,0.1c0.6,0,1.2,0.1,1.9,0.2v3.8c-0.6-0.1-1.2-0.2-1.7-0.2
			c-0.5-0.1-1-0.1-1.5-0.1c-1.2,0-2.2,0.2-2.8,0.6c-0.7,0.4-1.1,0.9-1.4,1.5c-0.3,0.6-0.5,1.4-0.5,2.2c0,0.8-0.1,1.8-0.1,2.7v3.2
			h7.2v3.7H383.5z"/>
		<path class="st0" d="M415,176.2v6.1h0.2c1.2-2.2,2.7-4,4.6-5.3c1.9-1.3,4.3-1.9,7.3-1.9c2.4,0,4.6,0.6,6.5,1.8
			c1.9,1.2,3.2,3,3.9,5.3c1.1-2.4,2.7-4.2,4.8-5.3c2.1-1.2,4.4-1.8,6.7-1.8c8,0,12,4.2,12,12.7v24.6h-4.4V188c0-3-0.6-5.3-1.9-6.9
			c-1.3-1.6-3.5-2.4-6.7-2.4c-1.9,0-3.5,0.4-4.8,1.1c-1.3,0.7-2.3,1.7-3,2.9c-0.7,1.2-1.3,2.6-1.6,4.2c-0.3,1.6-0.5,3.2-0.5,4.9
			v20.5h-4.4v-24.6c0-1.2-0.1-2.4-0.4-3.5c-0.3-1.1-0.7-2.1-1.3-2.9c-0.6-0.8-1.4-1.5-2.4-1.9c-1-0.5-2.2-0.7-3.6-0.7
			c-1.9,0-3.5,0.3-4.9,1c-1.4,0.7-2.5,1.6-3.4,2.8c-0.9,1.2-1.5,2.6-1.9,4.2c-0.4,1.6-0.6,3.4-0.6,5.3v20.2h-4.4v-36.3H415z"/>
		<path class="st0" d="M493,212.4v-6.5h-0.1c-1.2,2.4-2.9,4.3-5.1,5.6c-2.2,1.3-4.7,1.9-7.4,1.9c-2.3,0-4.3-0.3-5.9-0.9
			c-1.6-0.6-2.9-1.5-3.9-2.7c-1-1.2-1.7-2.6-2.2-4.3c-0.5-1.7-0.7-3.6-0.7-5.8v-23.5h4.4v23.6c0.1,3.3,0.9,5.8,2.3,7.4
			c1.4,1.7,3.9,2.5,7.4,2.5c1.9,0,3.6-0.4,4.9-1.2c1.4-0.8,2.5-1.9,3.4-3.3c0.9-1.4,1.5-2.9,2-4.7c0.4-1.8,0.6-3.5,0.6-5.4v-19h4.4
			v36.3H493z"/>
		<path class="st0" d="M524.5,183.2c-0.5-1-1.2-1.8-2.1-2.5c-0.9-0.7-1.9-1.1-3-1.4c-1.1-0.3-2.3-0.5-3.6-0.5c-1,0-2,0.1-3,0.3
			c-1,0.2-1.9,0.6-2.8,1.1c-0.8,0.5-1.5,1.1-2,1.9c-0.5,0.8-0.8,1.8-0.8,3c0,1,0.2,1.8,0.7,2.5c0.5,0.7,1.1,1.3,1.9,1.7
			c0.7,0.5,1.6,0.9,2.5,1.2c0.9,0.3,1.7,0.6,2.5,0.7l5.9,1.3c1.3,0.2,2.5,0.5,3.8,1c1.2,0.5,2.3,1.1,3.3,1.9c1,0.8,1.7,1.8,2.4,3
			c0.6,1.2,0.9,2.6,0.9,4.1c0,2-0.4,3.6-1.3,5c-0.9,1.4-2,2.5-3.4,3.4c-1.4,0.9-2.9,1.5-4.7,1.9c-1.7,0.4-3.4,0.6-5.1,0.6
			c-4.3,0-7.7-1-10.4-3c-2.6-2-4.2-5.2-4.5-9.7h4.4c0.2,3,1.3,5.3,3.3,6.8c2,1.5,4.5,2.3,7.4,2.3c1.1,0,2.2-0.1,3.3-0.4
			c1.1-0.2,2.2-0.6,3.2-1.2c1-0.6,1.8-1.3,2.4-2.1c0.6-0.9,0.9-1.9,0.9-3.2c0-1.1-0.2-2-0.7-2.7c-0.4-0.7-1-1.3-1.8-1.8
			c-0.7-0.5-1.6-0.9-2.6-1.2c-1-0.3-1.9-0.6-2.9-0.8L513,195c-1.5-0.4-2.8-0.8-4-1.3c-1.2-0.5-2.3-1.1-3.2-1.8
			c-0.9-0.7-1.6-1.6-2.1-2.7c-0.5-1.1-0.8-2.4-0.8-3.9c0-1.8,0.4-3.4,1.2-4.7c0.8-1.3,1.9-2.4,3.2-3.2c1.3-0.8,2.8-1.4,4.4-1.8
			c1.6-0.4,3.2-0.6,4.8-0.6c1.8,0,3.5,0.2,5.1,0.7c1.6,0.5,3,1.2,4.1,2.2c1.2,1,2.1,2.2,2.8,3.7c0.7,1.5,1.1,3.2,1.2,5.1h-4.4
			C525.3,185.4,525,184.2,524.5,183.2z"/>
		<path class="st0" d="M540.2,162.2v7.1h-4.4v-7.1H540.2z M540.2,176.2v36.3h-4.4v-36.3H540.2z"/>
		<path class="st0" d="M569.1,181.1c-1.6-1.5-3.9-2.3-6.9-2.3c-2.1,0-4,0.4-5.6,1.3c-1.6,0.9-2.9,2.1-4,3.5c-1.1,1.5-1.9,3.1-2.4,5
			c-0.5,1.9-0.8,3.7-0.8,5.7c0,1.9,0.3,3.8,0.8,5.7c0.5,1.9,1.3,3.5,2.4,5c1.1,1.5,2.4,2.6,4,3.5c1.6,0.9,3.4,1.3,5.6,1.3
			c1.4,0,2.6-0.3,3.9-0.8c1.2-0.5,2.3-1.2,3.2-2.1c0.9-0.9,1.7-2,2.3-3.3c0.6-1.3,1-2.6,1.1-4.1h4.4c-0.6,4.4-2.2,7.8-4.8,10.3
			c-2.6,2.5-6,3.7-10.1,3.7c-2.8,0-5.2-0.5-7.3-1.5c-2.1-1-3.9-2.4-5.4-4.1c-1.5-1.7-2.6-3.8-3.3-6.1c-0.7-2.3-1.1-4.8-1.1-7.4
			s0.4-5.1,1.1-7.4c0.7-2.3,1.8-4.3,3.3-6.1c1.5-1.7,3.2-3.1,5.4-4.1c2.1-1,4.6-1.5,7.3-1.5c3.9,0,7.2,1,9.9,3.1
			c2.7,2.1,4.3,5.2,4.8,9.3h-4.4C571.9,184.8,570.8,182.7,569.1,181.1z"/>
	</g>
</g>
</svg>
