<?xml version="1.0" encoding="utf-8"?>
<!-- Generator: Adobe Illustrator 26.0.2, SVG Export Plug-In . SVG Version: 6.00 Build 0)  -->
<svg version="1.1" id="Ebene_1" xmlns="http://www.w3.org/2000/svg" xmlns:xlink="http://www.w3.org/1999/xlink" x="0px" y="0px"
	 viewBox="0 0 1028.5 150" style="enable-background:new 0 0 1028.5 150;" xml:space="preserve">
<style type="text/css">
	.st0{fill:#0B0B0B;}
	.st1{fill:#EE2A32;}
</style>
<polygon class="st0" points="188.1,42.1 223.3,42.1 223.3,134.2 253.7,134.2 253.7,42.1 290.2,42.1 290.2,15.8 188.1,15.8 "/>
<path class="st1" d="M75,0C33.6,0,0,33.6,0,75s33.6,75,75,75s75-33.6,75-75S116.4,0,75,0z M75,137c-34.3,0-62-27.8-62-62
	c0-34.3,27.8-62,62-62s62,27.8,62,62C137,109.3,109.3,137,75,137z"/>
<path class="st1" d="M30,54c-3,6.4-4.8,13.5-4.8,21s1.7,14.6,4.8,21l32.1-21L30,54z"/>
<path class="st1" d="M74.4,48.6c7.1,0,13.5,2.8,18.2,7.3l19.5-12.5c-9-10.8-22.6-17.7-37.8-17.7s-28.8,6.9-37.8,17.7L56,55.9
	C60.9,51.4,67.4,48.6,74.4,48.6z"/>
<path class="st1" d="M74.4,101.4c-7.1,0-13.5-2.8-18.3-7.4l-19.5,12.5c9,10.8,22.6,17.7,37.8,17.7s28.8-6.9,37.8-17.7L92.7,94.1
	C88,98.6,81.5,101.4,74.4,101.4z"/>
<path class="st1" d="M120.1,96c3-6.4,4.8-13.5,4.8-21s-1.7-14.6-4.8-21L87.9,75L120.1,96z"/>
<path class="st0" d="M1025.7,54.5c0-24.4-15-38.7-44.1-38.7h-58.9v118.4h29.1V93.4h24.9l20.1,40.8h31.7L1006,88.4
	C1019.5,81.8,1025.7,69.2,1025.7,54.5z M980.8,68.1h-29.1v-26h29.9c12.6,0,16.3,6.4,16.3,12.2C997.9,61.5,994.2,68.1,980.8,68.1z"/>
<path class="st0" d="M409.4,54.5c0-24.4-15-38.7-44.1-38.7h-58.9v118.4h29.1V93.4h24.9l20.1,40.8H412l-22.5-45.8
	C403.2,81.8,409.4,69.2,409.4,54.5z M364.4,68.1h-29v-26h29.9c12.6,0,16.3,6.4,16.3,12.2C381.6,61.5,377.8,68.1,364.4,68.1z"/>
<path class="st0" d="M842.7,13.4c-33.6,0-60.9,27.6-60.9,61.6s27.3,61.7,60.9,61.7c33.9,0,60.5-27.1,60.5-61.7
	S876.6,13.4,842.7,13.4z M842.7,109.6c-19,0-33.9-15.2-33.9-34.6s14.9-34.6,33.9-34.6c18.8,0,33.5,15.2,33.5,34.6
	S861.5,109.6,842.7,109.6z"/>
<path class="st0" d="M466.7,15.8L419,134.2h31.1l8.5-20.7h49.7l8.3,20.7h31.2L500.2,15.8H466.7z M468.8,88.1l14.7-36.5L498,88.1
	H468.8z"/>
<polygon class="st0" points="629.4,15.8 588,63.8 588,15.8 558.4,15.8 558.4,134.2 588,134.2 588,87.8 629.2,134.2 668.3,134.2 
	613.9,75.3 668.4,15.8 "/>
<polygon class="st0" points="674.1,42.1 709.3,42.1 709.3,134.2 739.7,134.2 739.7,42.1 776.2,42.1 776.2,15.8 674.1,15.8 "/>
</svg>
